<svg width="16" height="16" viewBox="0 0 16 16" fill="none" xmlns="http://www.w3.org/2000/svg">
<path d="M0.5 3.35714C0.5 3.35714 0.499992 1.5 2.04511 1.5C3.1521 1.5 4.59085 1.5 5.31778 1.5C5.61215 1.5 5.8913 1.6297 6.0813 1.85454L7.35111 3.35714M0.5 3.35714V13.5C0.5 14.0523 0.947715 14.5 1.5 14.5H14.5C15.0523 14.5 15.5 14.0523 15.5 13.5V4.35714C15.5 3.80486 15.0523 3.35714 14.5 3.35714H7.35111M0.5 3.35714H7.35111" stroke="#7ACDC8"/>
<path d="M11.8252 7.64543C12.0599 7.41081 12.0599 7.03042 11.8252 6.79581C11.5906 6.56119 11.2101 6.56119 10.9754 6.79581L8.00122 9.76946L5.02699 6.79581C4.79233 6.56119 4.41188 6.56119 4.17722 6.79581C3.94256 7.03043 3.94256 7.41081 4.17722 7.64543L7.57633 11.0439C7.81099 11.2785 8.19145 11.2785 8.42611 11.0439L11.8252 7.64543Z" fill="#7ACDC8"/>
</svg>
