<svg width="16" height="16" viewBox="0 0 16 16" fill="none" xmlns="http://www.w3.org/2000/svg">
<path d="M0.5 3.35714C0.5 3.35714 0.499992 1.5 2.04511 1.5C3.1521 1.5 4.59085 1.5 5.31778 1.5C5.61215 1.5 5.8913 1.6297 6.0813 1.85454L7.35111 3.35714M0.5 3.35714V13.5C0.5 14.0523 0.947715 14.5 1.5 14.5H14.5C15.0523 14.5 15.5 14.0523 15.5 13.5V4.35714C15.5 3.80486 15.0523 3.35714 14.5 3.35714H7.35111M0.5 3.35714H7.35111" stroke="#7ACDC8"/>
<path d="M4.17715 10.1945C3.94249 10.4292 3.94249 10.8096 4.17715 11.0443C4.41181 11.2789 4.79227 11.2789 5.02693 11.0443L8.00116 8.07005L10.9754 11.0443C11.21 11.2789 11.5905 11.2789 11.8252 11.0443C12.0598 10.8096 12.0598 10.4292 11.8252 10.1945L8.42605 6.79538C8.19139 6.56072 7.81093 6.56072 7.57627 6.79538L4.17715 10.1945Z" fill="#7ACDC8"/>
</svg>
