<svg width="16" height="17" viewBox="0 0 16 17" fill="none" xmlns="http://www.w3.org/2000/svg">
<path fill-rule="evenodd" clip-rule="evenodd" d="M2.57648 1.35596C2.30033 1.35596 2.07648 1.57982 2.07648 1.85596L2.0765 14.5374C2.0765 14.8136 2.30036 15.0374 2.5765 15.0374H9.75765C9.88319 15.4122 10.0856 15.7518 10.346 16.0374H2.5765C1.74808 16.0374 1.0765 15.3659 1.0765 14.5374L1.07648 1.85596C1.07648 1.02753 1.74805 0.355957 2.57648 0.355957H9.30816H9.51855L9.66565 0.50638L14.4654 5.41468L14.6079 5.56042V5.76426V12.3749C14.3398 12.0443 13.9981 11.7758 13.6079 11.5942V6.26426H10.3082C9.47973 6.26426 8.80816 5.59268 8.80816 4.76426V1.35596H2.57648ZM9.80816 2.08242L12.9196 5.26426H10.3082C10.032 5.26426 9.80816 5.0404 9.80816 4.76426V2.08242ZM11.9235 12.144C11.9235 11.8679 12.1474 11.644 12.4235 11.644C12.6997 11.644 12.9235 11.8679 12.9235 12.144V13.644H14.4235C14.6997 13.644 14.9235 13.8679 14.9235 14.144C14.9235 14.4202 14.6997 14.644 14.4235 14.644H12.9235V16.144C12.9235 16.4202 12.6997 16.644 12.4235 16.644C12.1474 16.644 11.9235 16.4202 11.9235 16.144V14.644H10.4235C10.1474 14.644 9.92352 14.4202 9.92352 14.144C9.92352 13.8679 10.1474 13.644 10.4235 13.644H11.9235V12.144Z" fill="#7ACDC8"/>
</svg>
