<svg width="16" height="17" viewBox="0 0 16 17" fill="none" xmlns="http://www.w3.org/2000/svg">
<path fill-rule="evenodd" clip-rule="evenodd" d="M0.865931 2.24411C1.17104 2.01765 1.56088 1.88251 2.03824 1.88251H5.2544C5.67624 1.88251 6.07817 2.06012 6.36229 2.37156L7.45223 3.5663H14.2074C15.0358 3.5663 15.7074 4.23787 15.7074 5.0663V10.9106C15.4434 10.5656 15.1012 10.2836 14.7074 10.091V5.0663C14.7074 4.79015 14.4835 4.5663 14.2074 4.5663H7.23156H1.02594V13.169C1.02594 13.4452 1.2498 13.669 1.52594 13.669H10.8665C11.0208 14.0513 11.2567 14.3918 11.5526 14.669H1.52594C0.697513 14.669 0.0259399 13.9975 0.0259399 13.169V4.0663H0.51193C0.0259399 4.06629 0.0259399 4.06607 0.0259399 4.06584V4.06534L0.0259438 4.06422L0.0259584 4.06151L0.0260385 4.05423L0.0265329 4.03243C0.0270607 4.0148 0.0280538 3.99101 0.029919 3.96194C0.0336389 3.90395 0.0408859 3.82399 0.0550779 3.72918C0.0830825 3.5421 0.140022 3.28419 0.258856 3.01957C0.377968 2.75433 0.566717 2.46621 0.865931 2.24411ZM6.09862 3.5663L5.62353 3.04553C5.5287 2.94158 5.39483 2.88251 5.2544 2.88251L2.03824 2.88251C1.75945 2.88251 1.58218 2.95784 1.46195 3.04708C1.33583 3.1407 1.24102 3.27352 1.17109 3.42923C1.15068 3.47469 1.13302 3.52072 1.11778 3.5663H6.09862ZM12.9741 10.6175C12.9741 10.3414 13.1979 10.1175 13.4741 10.1175C13.7502 10.1175 13.9741 10.3414 13.9741 10.6175V12.1175H15.4741C15.7502 12.1175 15.9741 12.3414 15.9741 12.6175C15.9741 12.8936 15.7502 13.1175 15.4741 13.1175H13.9741V14.6175C13.9741 14.8936 13.7502 15.1175 13.4741 15.1175C13.1979 15.1175 12.9741 14.8936 12.9741 14.6175V13.1175H11.4741C11.1979 13.1175 10.9741 12.8936 10.9741 12.6175C10.9741 12.3414 11.1979 12.1175 11.4741 12.1175H12.9741V10.6175Z" fill="#7ACDC8"/>
</svg>
