<svg width="17" height="17" viewBox="0 0 17 17" fill="none" xmlns="http://www.w3.org/2000/svg">
<path fill-rule="evenodd" clip-rule="evenodd" d="M9.75319 2.73434H7.75319V3.73434H9.75319V2.73434ZM6.75319 2.73434V3.73434H3.25319C2.97705 3.73434 2.75319 3.9582 2.75319 4.23434C2.75319 4.51049 2.97705 4.73434 3.25319 4.73434H7.75319H9.75319H14.2532C14.5293 4.73434 14.7532 4.51049 14.7532 4.23434C14.7532 3.9582 14.5293 3.73434 14.2532 3.73434H10.7532V2.73434C10.7532 2.18206 10.3055 1.73434 9.75319 1.73434H7.75319C7.2009 1.73434 6.75319 2.18206 6.75319 2.73434ZM3.96598 13.2656V5.30401H4.96598V13.2656C4.96598 13.8179 5.4137 14.2656 5.96598 14.2656H11.5404C12.0927 14.2656 12.5404 13.8179 12.5404 13.2656V5.30401H13.5404V13.2656C13.5404 14.3702 12.645 15.2656 11.5404 15.2656H5.96598C4.86141 15.2656 3.96598 14.3702 3.96598 13.2656ZM6.25319 6.73434C5.97705 6.73434 5.75319 6.9582 5.75319 7.23434V12.2343C5.75319 12.5105 5.97705 12.7343 6.25319 12.7343C6.52933 12.7343 6.75319 12.5105 6.75319 12.2343V7.23434C6.75319 6.9582 6.52933 6.73434 6.25319 6.73434ZM8.25319 7.23434C8.25319 6.9582 8.47705 6.73434 8.75319 6.73434C9.02933 6.73434 9.25319 6.9582 9.25319 7.23434V12.2343C9.25319 12.5105 9.02933 12.7343 8.75319 12.7343C8.47705 12.7343 8.25319 12.5105 8.25319 12.2343V7.23434ZM11.2532 6.73434C10.977 6.73434 10.7532 6.9582 10.7532 7.23434V12.2343C10.7532 12.5105 10.977 12.7343 11.2532 12.7343C11.5293 12.7343 11.7532 12.5105 11.7532 12.2343V7.23434C11.7532 6.9582 11.5293 6.73434 11.2532 6.73434Z" fill="#7ACDC8"/>
</svg>
