<svg width="17" height="17" viewBox="0 0 17 17" fill="none" xmlns="http://www.w3.org/2000/svg">
<path d="M10.1981 4.8076L12.4057 2.6C12.5006 2.50508 12.6545 2.50508 12.7494 2.6L14.6637 4.51432C14.7587 4.60924 14.7587 4.76315 14.6637 4.85808L12.4561 7.06567M10.1981 4.8076L3.54259 11.4631M10.1981 4.8076L12.4561 7.06567M3.54259 11.4631C3.51252 11.4931 3.49087 11.5306 3.47979 11.5716L2.78012 14.1645C2.73153 14.3446 2.89543 14.51 3.07593 14.4631L5.69078 13.7837C5.73268 13.7728 5.77091 13.7509 5.80152 13.7203M3.54259 11.4631L5.80152 13.7203M5.80152 13.7203L12.4561 7.06567" stroke="#7ACDC8"/>
</svg>
